<?xml version="1.0" encoding="UTF-8"?><svg xmlns="http://www.w3.org/2000/svg" viewBox="0 0 1207.11 679"><defs><style>.cls-1,.cls-2,.cls-3,.cls-4,.cls-5,.cls-6,.cls-7{stroke:#000;}.cls-1,.cls-2,.cls-3,.cls-6,.cls-7{stroke-miterlimit:10;}.cls-1,.cls-3{fill:#000;}.cls-1,.cls-7{stroke-width:3px;}.cls-2,.cls-8{fill:#c43d3d;}.cls-2,.cls-3,.cls-4,.cls-5,.cls-6{stroke-width:2px;}.cls-8{stroke-width:0px;}.cls-4{stroke-linecap:square;}.cls-4,.cls-5{stroke-linejoin:round;}.cls-4,.cls-5,.cls-6{fill:#9b9b9b;}.cls-7{fill:none;}</style></defs><g id="Ebene_9"><g id="Farbe_02"><polyline class="cls-8" points="330 184 484 285 410 308 286.07 233.69 284 232"/><polyline class="cls-2" points="128 404 211 305 34.87 193 128 404"/><polyline class="cls-2" points="153 462 231 431 300 479 377 434 255.82 356.49 126.42 403.32 153 462"/><polyline class="cls-2" points="1018.84 473 940.84 442 871.84 490 794.84 445 916.02 367.49 1047 415 1018.84 473"/><g id="vented"><polyline class="cls-8" points="284 232 214 305 256 356 410 308 284 232"/></g><g id="midvent"><polygon class="cls-8" points="329 186 414 205 418 214 456 213 605 247 859 187 966 314 917 367 605 247 484 285 329 186"/></g></g><g id="Farbe_01"><polyline class="cls-6" points="795 445 916 367 605.01 247.13 256 356 377.57 432.45 576 320 818 458"/><polygon class="cls-6" points="213.29 305 35 191 330 184 213.29 305"/><g id="midvent-2"><polygon class="cls-4" points="256 356 126 403 213 305 256 356"/></g><polygon class="cls-6" points="966.12 314.49 1151 198 858.62 186.5 966.12 314.49"/><g id="midvent-3"><polygon class="cls-4" points="917.16 367 1046.51 415.76 966 315 917.16 367"/></g><path class="cls-5" d="M329,185l76-2,13,31c78.82-2.82,327-2,327-2,0,0,16.98-28.92,17-29,.07-.27,97,4,97,4l-254.99,61.13-151.32-35.14-34.68,1.01-4-9-85-20Z"/><polyline class="cls-5" points="152.86 462.17 230.46 432.54 300 479 189 543 152.86 462.17"/><polyline class="cls-5" points="1019 473 939.25 441.54 869.71 488 980.71 552 1021 470"/></g><polyline class="cls-2" points="1047 415 966 314 1151 200 1049 413"/></g><g id="Drachen"><polygon class="cls-7" points="32.5 190.5 188.5 542.5 576.5 320.5 981 552 1153.5 197.5 762.5 182.5 744.5 211.5 417.5 213.5 405.5 182.5 32.5 190.5"/><polygon class="cls-1" points="184.5 530.5 189.5 538.5 198.5 534.5 184.5 530.5"/><polygon class="cls-3" points="965.39 540.26 988.65 536.03 981.65 550.57 965.39 540.26"/></g></svg>