<?xml version="1.0" encoding="UTF-8"?><svg id="verstaerkung" xmlns="http://www.w3.org/2000/svg" viewBox="0 0 1206.49 529.16"><defs><style>.cls-1,.cls-2,.cls-3,.cls-4,.cls-5{stroke:#000;}.cls-1,.cls-2,.cls-4,.cls-5{stroke-miterlimit:10;}.cls-1,.cls-3,.cls-4{fill:#000;}.cls-1,.cls-3,.cls-5{stroke-width:3px;}.cls-2{stroke-width:8px;}.cls-2,.cls-3{stroke-linecap:round;}.cls-2,.cls-5{fill:none;}.cls-3{stroke-linejoin:round;}.cls-4{stroke-width:2px;}</style></defs><path class="cls-5" d="M35,125.59s569.47-57.34,1131.03,0l-160.16,331.2-405.35-254.09-406.34,247.17L35,125.59Z"/><polygon class="cls-1" points="189.64 440.61 194.18 449.87 204.56 443.55 189.64 440.61"/><polygon class="cls-4" points="989.8 447.28 1013.06 443.05 1006.07 457.6 989.8 447.28"/><path class="cls-2" d="M1191.5,100.92c-589.25-63.05-1176.51,0-1176.51,0"/><polygon class="cls-3" points="21.54 100.1 35.38 125.59 51.03 124.08 30.13 99.2 21.54 100.1"/><polygon class="cls-3" points="1180.12 99.39 1166.28 124.88 1150.64 123.37 1171.54 98.49 1180.12 99.39"/><polygon class="cls-3" points="596.73 100.14 604.31 100.14 604.31 71.57 596.73 71.66 596.73 100.14"/><polygon class="cls-3" points="866.23 104.26 873.81 104.26 873.81 76.91 866.23 76.35 866.23 104.26"/><polygon class="cls-3" points="339.45 105.59 331.87 105.59 331.87 79.09 339.45 78.55 339.45 105.59"/></svg>