<?xml version="1.0" encoding="UTF-8"?><svg xmlns="http://www.w3.org/2000/svg" viewBox="0 0 1206.49 529.16"><defs><style>.cls-1{stroke-width:3px;}.cls-1,.cls-2,.cls-3,.cls-4,.cls-5,.cls-6{stroke:#000;stroke-miterlimit:10;}.cls-1,.cls-5{fill:#000;}.cls-2{fill:none;}.cls-2,.cls-5{stroke-width:2px;}.cls-3{fill:#515151;}.cls-4{fill:#9b9b9b;}.cls-6{fill:#c43d3d;}</style></defs><g id="left"><g id="left-2"><polygon id="left-3" class="cls-4" points="96.54 158.12 159.46 194.44 159.46 264.64 96.75 228.18 96.54 158.12"/><polygon id="left-4" class="cls-4" points="222.38 158.12 285.3 194.44 285.3 264.64 222.6 228.18 222.38 158.12"/><polygon id="left-5" class="cls-4" points="348.22 158.12 411.14 194.44 411.14 264.64 348.44 228.18 348.22 158.12"/><polygon id="left-6" class="cls-4" points="474.06 158.12 536.98 194.44 536.98 242.09 517.58 253.89 474.28 228.18 474.06 158.12"/><polygon id="left-7" class="cls-4" points="599.91 158.12 662.83 194.44 662.83 243.66 599.76 204.13 599.91 158.12"/><polygon id="left-8" class="cls-4" points="725.75 158.12 788.67 194.44 788.67 264.64 725.96 228.18 725.75 158.12"/><polygon id="left-9" class="cls-4" points="851.59 158.12 914.51 194.44 914.51 264.64 851.8 228.18 851.59 158.12"/><polygon id="left-10" class="cls-4" points="977.43 158.12 1040.35 194.44 1040.35 264.64 977.65 228.18 977.43 158.12"/><polygon id="left-11" class="cls-4" points="1103.27 158.12 1140.17 179.27 1117.84 225.44 1103.77 254.54 1103.27 158.12"/><polygon id="left-12" class="cls-4" points="159.74 265.3 222.66 301.62 222.66 371.82 159.74 336.54 159.74 265.3"/><polygon id="left-13" class="cls-4" points="285.58 265.3 348.5 301.62 348.5 356.74 334.9 365.01 285.8 335.36 285.58 265.3"/><polygon id="left-14" class="cls-4" points="411.42 265.3 456.21 291.22 425.83 309.7 411.26 318.56 411.42 265.3"/><polygon id="left-15" class="cls-4" points="788.95 265.3 851.87 301.62 851.59 361.98 789.82 323.27 788.95 265.3"/><polygon id="left-16" class="cls-4" points="914.79 265.3 977.71 301.62 977.71 371.82 915.01 335.36 914.79 265.3"/><polygon id="left-17" class="cls-4" points="222.66 372.74 273.69 402.25 241.37 421.9 222.47 433.4 222.66 372.74"/><polygon id="left-18" class="cls-4" points="977.71 372.74 1031.58 403.83 1005.5 457.76 977.5 440.91 977.71 372.74"/><polygon id="left-19" class="cls-4" points="159.65 116.59 222.66 112.66 222.66 158.12 159.96 121.67 159.65 116.59"/><polygon id="left-20" class="cls-4" points="285.57 109.32 348.5 106.56 348.5 158.12 285.8 121.67 285.57 109.32"/><polygon id="left-21" class="cls-4" points="411.44 104.35 474.35 102.7 474.35 158.12 411.64 121.67 411.44 104.35"/><polygon id="left-22" class="cls-4" points="537 101.07 600.19 101.11 600.19 158.12 537.48 121.67 537 101.07"/><polygon id="left-23" class="cls-4" points="662.85 101.19 726.03 101.89 726.03 158.12 663.32 121.67 662.85 101.19"/><polygon id="left-24" class="cls-4" points="788.97 103.23 851.87 105.23 851.87 158.12 789.17 121.67 788.97 103.23"/><polygon id="left-25" class="cls-4" points="914.54 107.92 977.71 111.38 977.71 158.12 915.01 121.67 914.54 107.92"/><polygon id="left-26" class="cls-4" points="1040.59 115.6 1103.56 120.68 1103.56 158.12 1040.85 121.67 1040.59 115.6"/><polygon id="left-27" class="cls-4" points="65.29 123.76 96.76 121.18 96.54 158.12 40.67 125.97 65.29 123.76"/><polygon id="left-28" class="cls-4" points="1040.61 265.3 1085.92 291.46 1059.16 346.79 1040.83 335.36 1040.61 265.3"/></g></g><g id="top"><g id="top-2"><polygon id="top-3" class="cls-6" points="977.71 372.62 1040.85 335.36 1059.16 346.79 1031.58 403.83 977.71 372.62"/><polygon id="top-4" class="cls-6" points="142.54 346.4 159.74 336.54 222.66 372.62 170.29 402.95 142.54 346.4"/><polygon id="top-5" class="cls-6" points="222.66 372.62 285.58 336.54 334.9 365.01 273.69 402.25 222.66 372.62"/><polygon id="top-6" class="cls-6" points="860.54 367.65 914.79 336.54 977.71 372.62 920.88 405.42 860.54 367.65"/><polygon id="top-7" class="cls-6" points="159.74 265.18 222.66 229.11 285.58 265.18 222.66 301.5 159.74 265.18"/><polygon id="top-8" class="cls-6" points="87.36 233.99 96.82 229.11 159.74 265.18 115.27 290.85 87.36 233.99"/><polygon id="top-9" class="cls-6" points="411.42 265.18 474.35 229.11 517.58 253.89 456.21 291.22 411.42 265.18"/><polygon id="top-10" class="cls-6" points="680.19 254.54 726.03 229.11 788.95 265.18 741.16 292.76 680.19 254.54"/><polygon id="top-11" class="cls-6" points="1040.63 265.18 1103.56 227.89 1113.48 234.47 1085.92 291.46 1040.63 265.18"/><polygon id="top-12" class="cls-6" points="34.63 126.56 40.67 125.97 96.54 158 60.32 178.91 34.63 126.56"/><polygon id="top-13" class="cls-6" points="222.38 158 285.3 121.93 348.22 158 285.3 194.32 222.38 158"/><polygon id="top-14" class="cls-6" points="474.06 158 536.98 121.93 599.91 158 536.98 194.32 474.06 158"/><polygon id="top-15" class="cls-6" points="599.91 158 662.83 121.93 725.75 158 662.83 194.32 599.91 158"/><polygon id="top-16" class="cls-6" points="851.59 158 914.51 121.93 977.43 158 914.51 194.32 851.59 158"/><polygon id="top-17" class="cls-6" points="914.79 265.18 977.71 229.11 1040.63 265.18 977.71 301.5 914.79 265.18"/><polygon id="top-18" class="cls-6" points="1102.71 158 1165.66 126.56 1153.28 152.17 1140.17 179.27 1102.71 158"/><g id="vented-color"><g id="midvented-color"><polygon id="top-19" class="cls-6" points="96.54 158 159.46 121.93 222.38 158 159.46 194.32 96.54 158"/><polygon id="top-20" class="cls-6" points="348.22 158 411.14 121.93 474.06 158 411.14 194.32 348.22 158"/><polygon id="top-21" class="cls-6" points="725.75 158 788.67 121.93 851.59 158 788.67 194.32 725.75 158"/><polygon id="top-22" class="cls-6" points="977.43 158 1040.35 121.93 1103.27 158 1040.35 194.32 977.43 158"/></g><polygon id="top-23" class="cls-6" points="788.95 265.18 851.87 229.11 914.79 265.18 851.87 301.5 788.95 265.18"/><polygon id="top-24" class="cls-6" points="285.58 265.18 348.5 229.11 411.42 265.18 348.5 301.5 285.58 265.18"/></g></g></g><g id="right"><g id="right-2"><polygon id="right-3" class="cls-3" points="96.76 121.18 159.65 116.59 159.53 121.67 96.82 158.12 96.76 121.18"/><polygon id="right-4" class="cls-3" points="222.66 112.66 285.57 109.32 285.37 121.67 222.66 158.12 222.66 112.66"/><polygon id="right-5" class="cls-3" points="348.5 106.56 411.44 104.35 411.21 121.67 348.5 158.12 348.5 106.56"/><polygon id="right-6" class="cls-3" points="474.35 102.7 537 101.07 537.05 121.67 474.35 158.12 474.35 102.7"/><polygon id="right-7" class="cls-3" points="600.19 101.11 662.85 101.19 662.89 121.67 600.19 158.12 600.19 101.11"/><polygon id="right-8" class="cls-3" points="726.03 101.89 788.97 103.23 788.73 121.67 726.03 158.12 726.03 101.89"/><polygon id="right-9" class="cls-3" points="851.87 105.23 914.54 107.92 914.58 121.67 851.87 158.12 851.87 105.23"/><polygon id="right-10" class="cls-3" points="977.71 111.38 1040.59 115.6 1040.42 121.67 977.71 158.12 977.71 111.38"/><polygon id="right-11" class="cls-3" points="1103.56 120.68 1165.66 126.56 1103.56 158.12 1103.56 158.12 1103.56 120.68"/><polygon id="right-12" class="cls-3" points="170.29 402.95 222.66 372.74 222.47 433.4 193.8 450.84 170.29 402.95"/><polygon id="right-13" class="cls-3" points="920.88 405.42 977.71 372.74 977.5 440.91 974.88 439.27 920.88 405.42"/><polygon id="right-14" class="cls-3" points="115.27 290.85 159.74 265.3 159.74 336.54 142.54 346.4 115.27 290.85"/><polygon id="right-15" class="cls-3" points="222.66 301.62 285.58 265.3 285.37 335.36 222.66 371.82 222.66 301.62"/><polygon id="right-16" class="cls-3" points="348.5 301.62 411.42 265.3 411.26 318.56 348.5 356.74 348.5 301.62"/><polygon id="right-17" class="cls-3" points="741.16 292.76 788.95 265.3 788.77 322.61 781.16 317.83 741.16 292.76"/><polygon id="right-18" class="cls-3" points="851.87 301.62 914.79 265.3 914.58 335.36 860.54 367.65 851.59 361.98 851.87 301.62"/><polygon id="right-19" class="cls-3" points="977.71 301.62 1040.63 265.3 1040.42 335.36 977.71 371.82 977.71 301.62"/><polygon id="right-20" class="cls-3" points="60.32 178.91 96.54 158.12 96.32 228.18 87.36 233.99 60.32 178.91"/><polygon id="right-21" class="cls-3" points="159.46 194.44 222.38 158.12 222.16 228.18 159.46 264.64 159.46 194.44"/><polygon id="right-22" class="cls-3" points="285.3 194.44 348.22 158.12 348.01 228.18 285.3 264.64 285.3 194.44"/><polygon id="right-23" class="cls-3" points="411.14 194.44 474.06 158.12 473.85 228.18 411.14 264.64 411.14 194.44"/><polygon id="right-24" class="cls-3" points="536.98 194.44 599.91 158.12 599.76 204.13 584.86 212.97 536.98 242.09 536.98 194.44"/><polygon id="right-25" class="cls-3" points="662.83 194.44 725.75 158.12 725.53 228.18 680.19 254.54 662.83 243.66 662.83 194.44"/><polygon id="right-26" class="cls-3" points="788.67 194.44 851.59 158.12 851.37 228.18 788.67 264.64 788.67 194.44"/><polygon id="right-27" class="cls-3" points="914.51 194.44 977.43 158.12 977.22 228.18 914.51 264.64 914.51 194.44"/><polygon id="right-28" class="cls-3" points="1040.35 194.44 1103.27 158.12 1103.56 212.97 1103.56 227.89 1040.35 264.64 1040.35 194.44"/></g><path class="cls-2" d="M193.8,450.84l405.96-246.71,405.32,253.99,160.57-331.56c-173.1-15.61-362.29-25.45-565.47-25.45-203.21,0-392.44,9.83-565.56,25.45,53.06,108.09,106.12,216.19,159.18,324.28"/></g><g id="verstaerkung"><polygon class="cls-1" points="189.64 440.61 194.18 449.87 204.56 443.55 189.64 440.61"/><polygon class="cls-5" points="989.8 447.28 1013.06 443.05 1006.07 457.6 989.8 447.28"/></g></svg>