<?xml version="1.0" encoding="UTF-8"?><svg xmlns="http://www.w3.org/2000/svg" viewBox="0 0 1207.11 679"><defs><style>.cls-1,.cls-2,.cls-3,.cls-4,.cls-5,.cls-6{stroke:#000;stroke-miterlimit:10;}.cls-1,.cls-4{fill:#000;}.cls-1,.cls-5{stroke-width:3px;}.cls-2{fill:#515151;}.cls-3{fill:#9b9b9b;}.cls-4{stroke-width:2px;}.cls-5{fill:none;}.cls-6{fill:#c43d3d;}</style></defs><g id="left"><g id="left-2"><polygon id="left-3" class="cls-3" points="73.18 250.61 136.1 286.93 136.1 357.13 96.5 334.5 73.5 281.5 73.18 250.61"/><polygon id="left-4" class="cls-3" points="199.03 250.61 261.95 286.93 261.95 357.13 199.24 320.67 199.03 250.61"/><polygon id="left-5" class="cls-3" points="262.87 358.61 325.79 394.93 324.5 464.5 263.08 428.67 262.87 358.61"/><polygon id="left-6" class="cls-3" points="765.87 358.61 828.79 394.93 828.79 465.13 766.08 428.67 765.87 358.61"/><polygon id="left-7" class="cls-3" points="386.28 357.61 449.21 393.93 404.92 416.5 386.5 427.67 386.28 357.61"/><polygon id="midvented" class="cls-3" points="324.87 251.61 387.79 287.93 387.79 358.13 325.08 321.67 324.87 251.61"/><polygon id="left-8" class="cls-3" points="450.87 251.61 513.79 287.93 513.5 356.5 511.5 356.5 451.08 321.67 450.87 251.61"/><polygon id="left-9" class="cls-3" points="576.87 251.61 639.79 287.93 639.5 356.5 576.5 320.5 576.87 251.61"/><polygon id="left-10" class="cls-3" points="702.39 250.61 765.31 286.93 765.31 357.13 702.61 320.67 702.39 250.61"/><polygon id="left-11" class="cls-3" points="828.23 250.61 891.16 286.93 891.16 357.13 828.45 320.67 828.23 250.61"/><polygon id="left-12" class="cls-3" points="954.08 250.61 1017 286.93 1017 357.13 954.29 320.67 954.08 250.61"/><polygon id="left-13" class="cls-3" points="1079.92 250.61 1116.81 271.76 1094.49 317.93 1080.41 347.03 1079.92 250.61"/><polygon id="left-14" class="cls-3" points="137.39 357.79 200.31 394.11 200.31 464.31 137.39 429.03 137.39 426.28 137.39 357.79"/><polygon id="left-15" class="cls-3" points="891.44 357.79 954.36 394.11 954.36 464.31 891.65 427.85 891.44 357.79"/><polygon id="left-16" class="cls-3" points="954.44 465.79 1006.5 495.5 980.5 550.5 954.65 535.85 954.44 465.79"/><polygon id="left-17" class="cls-3" points="199.31 465.23 260.5 500.5 216.5 526.5 198.5 535.5 199.31 465.23"/><polygon id="left-18" class="cls-3" points="136.5 188.5 199.5 187.5 199.31 250.61 136.6 214.16 136.5 188.5"/><polygon id="left-19" class="cls-3" points="262.5 185.5 325.5 184.5 325.15 250.61 262.44 214.16 262.5 185.5"/><polygon id="left-20" class="cls-3" points="387.5 183.5 405.5 182.5 417.5 213.5 451.5 214.5 450.99 250.61 388.29 214.16 387.5 183.5"/><polygon id="left-21" class="cls-3" points="513.5 212.5 576.5 211.5 576.83 250.61 514.13 214.16 513.5 212.5"/><polygon id="left-22" class="cls-3" points="639.5 211.5 702.5 211.5 702.68 250.61 639.97 214.16 639.5 211.5"/><polygon id="left-23" class="cls-3" points="765.62 182.72 828.52 184.72 828.52 250.61 765.81 214.16 765.62 182.72"/><polygon id="left-24" class="cls-3" points="891.18 187.41 954.36 190.87 954.36 250.61 891.65 214.16 891.18 187.41"/><polygon id="left-25" class="cls-3" points="1017.23 192.09 1080.2 195.5 1080.2 250.61 1017.5 214.16 1017.23 192.09"/><polygon id="left-26" class="cls-3" points="32.5 190.5 73.5 190.5 73.18 250.61 54.5 239.5 32.5 190.5"/><polygon id="left-27" class="cls-3" points="1017.26 357.79 1062.56 383.94 1035.8 439.28 1017.47 427.85 1017.26 357.79"/></g></g><g id="top"><g id="top-2"><polygon id="top-3" class="cls-6" points="954.36 465.1 1017.5 427.85 1035.8 439.28 1008.22 496.32 954.36 465.1"/><polygon id="top-4" class="cls-6" points="154.5 466.5 138.5 430.5 199.31 465.1 163.5 485.5 154.5 466.5"/><polygon id="top-5" class="cls-6" points="136.39 357.67 199.31 321.59 262.23 357.67 199.31 393.99 136.39 357.67"/><polygon id="top-6" class="cls-6" points="199.28 465.33 262.2 429.25 325.12 465.33 261.5 500.5 199.28 465.33"/><polygon id="top-7" class="cls-6" points="829.28 465.33 892.2 429.25 955.12 465.33 892.2 501.65 829.28 465.33"/><polygon id="top-8" class="cls-6" points="105.5 355.5 96.5 334.5 136.39 357.67 112.5 371.5 105.5 355.5"/><polygon id="top-9" class="cls-6" points="1017.28 357.67 1080.2 320.38 1090.12 326.96 1062.56 383.94 1017.28 357.67"/><polygon id="top-10" class="cls-6" points="59.5 251.5 54.5 239.5 73.18 250.49 61.5 257.5 59.5 251.5"/><polygon id="top-11" class="cls-6" points="199.03 250.49 261.95 214.42 324.87 250.49 261.95 286.81 199.03 250.49"/><polygon id="top-12" class="cls-6" points="450.71 250.49 513.63 214.42 576.55 250.49 513.63 286.81 450.71 250.49"/><polygon id="top-13" class="cls-6" points="576.55 250.49 639.47 214.42 702.39 250.49 639.47 286.81 576.55 250.49"/><polygon id="top-14" class="cls-6" points="828.23 250.49 891.16 214.42 954.08 250.49 891.16 286.81 828.23 250.49"/><polygon id="top-15" class="cls-6" points="386.23 356.67 449.15 320.59 512.07 356.67 449.15 392.99 386.23 356.67"/><polygon id="top-16" class="cls-6" points="891.44 357.67 954.36 321.59 1017.28 357.67 954.36 393.99 891.44 357.67"/><polygon id="top-17" class="cls-6" points="641.23 356.67 704.15 320.59 767.07 356.67 704.15 392.99 641.23 356.67"/><polygon id="top-18" class="cls-6" points="1079.35 250.49 1142.31 219.05 1129.92 244.65 1116.81 271.76 1079.35 250.49"/><g id="vented"><polygon id="top-19" class="cls-6" points="765.6 357.67 828.52 321.59 891.44 357.67 828.52 393.99 765.6 357.67"/><polygon id="midvented-2" class="cls-6" points="954.08 250.49 1017 214.42 1079.92 250.49 1017 286.81 954.08 250.49"/><polygon id="top-20" class="cls-6" points="702.39 250.49 765.31 214.42 828.23 250.49 765.31 286.81 702.39 250.49"/><polygon id="midvented-3" class="cls-6" points="73.18 250.49 136.1 214.42 199.03 250.49 136.1 286.81 73.18 250.49"/><polygon id="top-21" class="cls-6" points="324.87 250.49 387.79 214.42 450.71 250.49 387.79 286.81 324.87 250.49"/><polygon id="top-22" class="cls-6" points="262.23 357.67 325.15 321.59 388.07 357.67 325.15 393.99 262.23 357.67"/></g></g></g><g id="right"><g id="right-2"><polygon id="right-3" class="cls-2" points="73.4 190.5 136.3 188.5 136.17 214.16 73.47 250.61 73.4 190.5"/><polygon id="right-4" class="cls-2" points="199.5 187.5 262.5 185.5 262.01 214.16 199.31 250.61 199.5 187.5"/><polygon id="right-5" class="cls-2" points="324.5 184.5 387.5 182.5 387.85 214.16 325.15 250.61 324.5 184.5"/><polygon id="right-6" class="cls-2" points="451.5 213.5 512.5 212.5 513.7 214.16 450.99 250.61 451.5 213.5"/><polygon id="right-7" class="cls-2" points="576.5 212.5 639.5 212.5 639.54 214.16 576.83 250.61 576.5 212.5"/><polygon id="right-8" class="cls-2" points="702.5 212.5 743.5 211.5 762.5 182.5 765.5 182.5 765.38 214.16 702.68 250.61 702.5 212.5"/><polygon id="right-9" class="cls-2" points="828.52 185.72 891.18 188.41 891.22 214.16 828.52 250.61 828.52 185.72"/><polygon id="right-10" class="cls-2" points="954.36 188.87 1017.23 193.09 1017.06 214.16 954.36 250.61 954.36 188.87"/><polygon id="right-11" class="cls-2" points="1080.2 195.5 1153.5 197.5 1142.31 219.05 1080.2 250.61 1080.2 250.61 1080.2 195.5"/><polygon id="right-12" class="cls-2" points="163.5 485.5 199.31 465.23 198.5 535.5 185.5 535.5 163.5 485.5"/><polygon id="right-13" class="cls-2" points="112.5 371.5 136.39 357.79 136.5 424.5 124.5 397.5 112.5 371.5"/><polygon id="right-14" class="cls-2" points="199.31 394.11 262.23 357.79 263.5 428.5 199.31 464.31 199.31 394.11"/><polygon id="right-15" class="cls-2" points="325.31 395.11 388.23 358.79 388.01 428.85 325.31 465.31 325.31 395.11"/><polygon id="right-16" class="cls-2" points="704.5 393.5 765.23 357.79 766.5 428.5 731.5 408.5 704.5 393.5"/><polygon id="right-17" class="cls-2" points="828.31 395.11 891.23 358.79 891.01 428.85 828.31 465.31 828.31 395.11"/><polygon id="right-18" class="cls-2" points="892.5 501.5 954.23 465.79 954.01 535.85 950.5 534.5 892.5 501.5"/><polygon id="right-19" class="cls-2" points="954.36 394.11 1017.28 357.79 1017.06 427.85 954.36 464.31 954.36 394.11"/><polygon id="right-20" class="cls-2" points="61.5 257.5 73.18 250.61 73.5 283.5 68.5 271.5 61.5 257.5"/><polygon id="right-21" class="cls-2" points="136.1 286.93 199.02 250.61 198.81 320.67 136.1 357.13 136.1 286.93"/><polygon id="right-22" class="cls-2" points="261.95 286.93 324.87 250.61 324.65 320.67 261.95 357.13 261.95 286.93"/><polygon id="right-23" class="cls-2" points="387.79 286.93 450.71 250.61 450.49 320.67 387.79 357.13 387.79 286.93"/><polygon id="right-24" class="cls-2" points="513.79 286.93 576.71 250.61 576.49 320.67 513.79 357.13 513.79 286.93"/><polygon id="right-25" class="cls-2" points="639.79 286.93 702.71 250.61 702.49 320.67 639.79 357.13 639.79 286.93"/><polygon id="midvented-4" class="cls-2" points="765.31 286.93 828.23 250.61 828.02 320.67 765.31 357.13 765.31 286.93"/><polygon id="right-26" class="cls-2" points="891.16 286.93 954.08 250.61 953.86 320.67 891.16 357.13 891.16 286.93"/><polygon id="right-27" class="cls-2" points="1017 286.93 1079.92 250.61 1080.2 305.46 1080.2 320.38 1017 357.13 1017 286.93"/></g></g><g id="Drachen"><polygon class="cls-5" points="32.5 190.5 188.5 542.5 576.5 320.5 981 552 1153.5 197.5 762.5 182.5 744.5 211.5 417.5 213.5 405.5 182.5 32.5 190.5"/><polygon class="cls-1" points="184.5 530.5 189.5 538.5 198.5 534.5 184.5 530.5"/><polygon class="cls-4" points="965.39 540.26 988.65 536.03 981.65 550.57 965.39 540.26"/></g></svg>