<?xml version="1.0" encoding="UTF-8"?><svg xmlns="http://www.w3.org/2000/svg" viewBox="0 0 1206.49 529.23"><defs><style>.cls-1{stroke-width:3px;}.cls-1,.cls-2,.cls-3,.cls-4,.cls-5,.cls-6{stroke:#000;}.cls-1,.cls-2,.cls-3,.cls-6{stroke-miterlimit:10;}.cls-1,.cls-3{fill:#000;}.cls-2,.cls-7{fill:#c43d3d;}.cls-2,.cls-3,.cls-4,.cls-5,.cls-6{stroke-width:2px;}.cls-7{stroke-width:0px;}.cls-4{stroke-linecap:square;}.cls-4,.cls-5{stroke-linejoin:round;}.cls-4,.cls-5,.cls-6{fill:#9b9b9b;}</style></defs><g id="top"><g id="Farbe_02"><polyline class="cls-7" points="344.1 106.11 487.9 192.62 416.69 215.94 303.59 147.32 344.1 106.11"/><polyline class="cls-2" points="1166.28 124.91 987.62 238.98 1073.88 314.3 1166.28 124.91"/><polyline class="cls-7" points="858.16 107.21 898.23 147.32 785.12 215.94 712.45 193.15 858.08 106.74"/><polyline class="cls-2" points="831.94 347.79 944.47 267.47 1073.88 314.3 1044.78 375.93 967.68 344.98 899.79 388.86 831.94 347.79"/><polyline class="cls-2" points="127.94 314.95 213.8 239.62 35.38 125.62 127.94 314.95"/><polyline class="cls-2" points="155.96 372.03 233.05 341.08 300.94 384.96 373.09 341.08 257.34 268.11 127.94 314.95 155.96 372.03"/><g id="vented"><polyline class="cls-7" points="303.59 147.32 258.17 194.16 334.9 242.72 416.69 215.94 303.59 147.32"/><polyline class="cls-7" points="897.93 146.71 943.35 193.55 866.62 242.11 784.83 215.33 897.93 146.71"/></g><g id="midvent"><polygon class="cls-7" points="342.27 106.67 600.52 155.75 857.32 105.47 858.08 106.74 716.62 192.67 600.52 155.75 486.07 193.18 342.27 106.67"/></g></g><polygon class="cls-7" points="944.34 266.92 987.62 238.98 942.68 193.18 866.62 242.11 944.34 266.92"/><polygon class="cls-7" points="257.65 267.43 214.37 239.48 258.17 194.16 334.9 242.29 257.65 267.43"/></g><g id="right"><g id="Farbe_01"><polyline class="cls-6" points="831.94 347.79 944.47 267.47 600.52 155.75 257.34 268.11 373.09 341.08 600.52 202.74 831.94 347.79"/><path class="cls-6" d="M213.8,239.62L35.38,125.62s275.53-22.13,308.72-19.51h0l-130.3,133.51Z"/><g id="midvent-2"><polygon class="cls-4" points="257.34 268.11 127.94 314.95 213.8 239.62 257.34 268.11"/><polygon class="cls-4" points="944.47 267.47 1073.88 314.3 988.01 238.98 944.47 267.47"/></g><path class="cls-5" d="M987.62,238.98l178.42-113.36s-275.53-22.77-308.72-20.15h0l130.3,133.51Z"/><path class="cls-5" d="M344.1,106.11l256.42,49.64,256.8-50.28s-335.05-14.5-513.22.64"/><polyline class="cls-5" points="155.96 372.03 233.05 341.08 300.94 384.96 194.18 449.9 155.96 372.03"/><polyline class="cls-5" points="1044.78 375.93 967.68 344.98 899.79 388.86 1006.55 453.8 1044.78 375.93"/></g><line class="cls-3" x1="987.66" y1="238.98" x2="944.13" y2="267.47"/><line class="cls-3" x1="213.8" y1="239.62" x2="258.74" y2="269"/></g><g id="verstaerkung"><polygon class="cls-1" points="189.64 440.65 194.18 449.9 204.56 443.59 189.64 440.65"/><polygon class="cls-3" points="993.74 445.96 1011.53 442.94 1006.55 453.8 993.74 445.96"/></g></svg>