<?xml version="1.0" encoding="UTF-8"?><svg id="Drachen" xmlns="http://www.w3.org/2000/svg" viewBox="0 0 1207.11 679"><defs><style>.cls-1,.cls-2,.cls-3,.cls-4,.cls-5{stroke:#000;}.cls-1,.cls-2,.cls-4,.cls-5{stroke-miterlimit:10;}.cls-1,.cls-3,.cls-4{fill:#000;}.cls-1,.cls-3,.cls-5{stroke-width:3px;}.cls-2{stroke-width:8px;}.cls-2,.cls-3{stroke-linecap:round;}.cls-2,.cls-5{fill:none;}.cls-3{stroke-linejoin:round;}.cls-4{stroke-width:2px;}</style></defs><polygon class="cls-5" points="32.5 190.5 188.5 542.5 576.5 320.5 981 552 1153.5 197.5 762.5 182.5 744.5 211.5 417.5 213.5 405.5 182.5 32.5 190.5"/><polygon class="cls-1" points="184.5 530.5 189.5 538.5 198.5 534.5 184.5 530.5"/><polygon class="cls-4" points="965.39 540.26 988.65 536.03 981.65 550.57 965.39 540.26"/><path class="cls-2" d="M1166,178l-392-15-12,20c-.47.37-18,29-18,29-94.14-1.45-245.51-.03-327,2l-14-53-383,9"/><polygon class="cls-3" points="21.5 168.5 32.5 190.5 46.5 189.5 27.72 168 21.5 168.5"/><polygon class="cls-3" points="1163.5 177.5 1153.5 197.5 1137.5 197 1159.12 176 1163.5 177.5"/></svg>